<?xml version="1.0" encoding="utf-8"?>
<!-- Generator: Adobe Illustrator 21.1.0, SVG Export Plug-In . SVG Version: 6.00 Build 0)  -->
<svg version="1.1" id="Layer_1" xmlns="http://www.w3.org/2000/svg" xmlns:xlink="http://www.w3.org/1999/xlink" x="0px" y="0px"
	 viewBox="0 0 233 233" style="enable-background:new 0 0 233 233;" xml:space="preserve">
<style type="text/css">
	.st0{fill:#3B96DB;}
	.st1{fill:#B1B3B3;}
	.st2{fill:#9B55B7;}
	.st3{fill:#E6483B;}
	.st4{fill:#27BD9C;}
</style>
<g id="data-circle">
	<path id="blue_-_hugo" class="st0" d="M115.9,57l-0.7-56.5C51.8,1.2,0.5,52.8,0.5,116.5c0,8.2,0.9,16.3,2.5,24l55-12.4
		c-0.7-3.6-1-7.3-1-11.1C57,84.2,83.3,57.6,115.9,57z"/>
	<path id="gray_-_fernanda" class="st1" d="M118.3,0.5l0.7,56.5c17.4,0.5,32.9,8.5,43.5,20.8l43.7-35C185.2,17.4,153.7,1,118.3,0.5z
		"/>
	<path id="purple_-_eliza" class="st2" d="M208,45.2l-43.7,34.9c7.9,10.2,12.6,23,12.6,36.9c0,10-2.4,19.4-6.8,27.7l48.3,27.1
		c8.9-16.4,14-35.3,14-55.3C232.5,89.6,223.4,64.9,208,45.2z"/>
	<path id="orange_-_anderson" class="st3" d="M168.8,147.3C158.4,165.1,139.1,177,117,177c-15.3,0-29.3-5.8-39.9-15.2l-38.8,40.3
		c20.6,18.9,48.1,30.4,78.3,30.4c43,0,80.5-23.4,100.5-58.1L168.8,147.3z"/>
	<path id="green_-_carlos" class="st4" d="M58.6,131l-55,12.4c5.2,21.9,16.7,41.5,32.4,56.6l38.8-40.3C67,152,61.3,142.1,58.6,131z"
		/>
</g>
</svg>
